<?xml version="1.0" encoding="UTF-8" standalone="no"?>
<!-- Created with Inkscape (http://www.inkscape.org/) -->

<svg
   xmlns:dc="http://purl.org/dc/elements/1.1/"
   xmlns:cc="http://creativecommons.org/ns#"
   xmlns:rdf="http://www.w3.org/1999/02/22-rdf-syntax-ns#"
   xmlns:svg="http://www.w3.org/2000/svg"
   xmlns="http://www.w3.org/2000/svg"
   xmlns:sodipodi="http://sodipodi.sourceforge.net/DTD/sodipodi-0.dtd"
   xmlns:inkscape="http://www.inkscape.org/namespaces/inkscape"
   width="16"
   height="16"
   id="svg3051"
   version="1.1"
   inkscape:version="0.48.3.1 r9886"
   sodipodi:docname="chrome_logo.svg">
  <defs
     id="defs3053" />
  <sodipodi:namedview
     id="base"
     pagecolor="#ffffff"
     bordercolor="#666666"
     borderopacity="1.0"
     inkscape:pageopacity="0.0"
     inkscape:pageshadow="2"
     inkscape:zoom="11.313708"
     inkscape:cx="14.608049"
     inkscape:cy="9.8102138"
     inkscape:document-units="px"
     inkscape:current-layer="layer1"
     showgrid="false"
     inkscape:window-width="1855"
     inkscape:window-height="1176"
     inkscape:window-x="65"
     inkscape:window-y="24"
     inkscape:window-maximized="1" />
  <metadata
     id="metadata3056">
    <rdf:RDF>
      <cc:Work
         rdf:about="">
        <dc:format>image/svg+xml</dc:format>
        <dc:type
           rdf:resource="http://purl.org/dc/dcmitype/StillImage" />
        <dc:title></dc:title>
      </cc:Work>
    </rdf:RDF>
  </metadata>
  <g
     inkscape:label="Layer 1"
     inkscape:groupmode="layer"
     id="layer1"
     transform="translate(0,0)">
    <g
       id="g3101">
      <path
         inkscape:connector-curvature="0"
         inkscape:export-ydpi="5.52"
         inkscape:export-xdpi="5.52"
         inkscape:export-filename="/usr/local/google/home/alancutter/repos/bugzilla_migrator/img/loading_frame_12.png"
         id="path3041"
         d="m 7.926453,0 c -0.6596354,0.01 -1.3301485,0.095 -1.9967917,0.2739 -2.3999467,0.643 -4.2507292,2.3118 -5.20761468,4.4083 l 4.02833538,4.0283 c -0.3782572,-1.7243 0.6668813,-3.4646 2.3892064,-3.9261 0.2873057,-0.077 0.5761914,-0.1124 0.8604409,-0.1124 l 7.2738917,0 c -1.314436,-2.8824 -4.219046,-4.7032 -7.347468,-4.672 z"
         style="color:#000000;fill:#404d6c;fill-opacity:1;fill-rule:nonzero;stroke:none;stroke-width:1px;marker:none;visibility:visible;display:inline;overflow:visible;enable-background:accumulate" />
      <path
         inkscape:connector-curvature="0"
         inkscape:export-ydpi="5.52"
         inkscape:export-xdpi="5.52"
         inkscape:export-filename="/usr/local/google/home/alancutter/repos/bugzilla_migrator/img/loading_frame_12.png"
         id="path3039"
         d="m 7.9755037,5.1932 c -0.2315089,0 -0.4667777,0.035 -0.7010243,0.098 -1.4991687,0.4017 -2.3841895,1.9364 -1.9824891,3.4355 0.1129755,0.4217 0.3142669,0.7941 0.5804373,1.1037 l 0.05314,0.055 -0.00204,0 c 0.68315,0.7516 1.7509554,1.1032 2.8020526,0.8216 0.6914187,-0.1853 1.2522466,-0.6126 1.6166468,-1.165 l 0.0368,-0.063 0.002,0 c 0.395858,-0.6353 0.538677,-1.427 0.329052,-2.2093 -0.326382,-1.218 -1.4001902,-2.0318 -2.5956303,-2.0785 l -0.1144529,0 -7e-7,-0 c -0.00816,0 -0.016356,-1e-4 -0.024526,0 z"
         style="color:#000000;fill:#404d6c;fill-opacity:1;fill-rule:nonzero;stroke:none;stroke-width:1px;marker:none;visibility:visible;display:inline;overflow:visible;enable-background:accumulate" />
      <path
         inkscape:connector-curvature="0"
         inkscape:export-ydpi="5.52"
         inkscape:export-xdpi="5.52"
         inkscape:export-filename="/usr/local/google/home/alancutter/repos/bugzilla_migrator/img/loading_frame_12.png"
         id="path3037"
         d="m 9.7863127,5.1956 c 0.6789233,0.4318 1.2044933,1.1072 1.4286183,1.9436 0.246096,0.9185 0.08048,1.8514 -0.382192,2.6038 l -3.5909578,6.2212 c 0.9241597,0.088 1.8791989,0.015 2.8286178,-0.2391 4.266558,-1.1432 6.798434,-5.5293 5.655003,-9.7959 -0.06727,-0.251 -0.146003,-0.4951 -0.235034,-0.7337 l -5.7042528,0 z"
         style="opacity:0.33;color:#000000;fill:#404d6c;fill-opacity:1;fill-rule:nonzero;stroke:none;stroke-width:1px;marker:none;visibility:visible;display:inline;overflow:visible;enable-background:accumulate" />
      <path
         inkscape:connector-curvature="0"
         inkscape:export-ydpi="5.52"
         inkscape:export-xdpi="5.52"
         inkscape:export-filename="/usr/local/google/home/alancutter/repos/bugzilla_migrator/img/loading_frame_12.png"
         id="path3033"
         d="m 0.50540356,5.2058 c -0.56265197,1.5052 -0.67853589,3.1938 -0.23094576,4.8642 0.8368439,3.1231 3.4121554,5.3155 6.4052744,5.8186 l 2.847013,-4.9316 c -0.2077223,0.1071 -0.4294687,0.1946 -0.6642358,0.2575 -1.2338943,0.3306 -2.4963553,-0.08 -3.3089169,-0.9585 l -5.04819483,-5.0502 z"
         style="opacity:0.66;color:#000000;fill:#404d6c;fill-opacity:1;fill-rule:nonzero;stroke:none;stroke-width:1px;marker:none;visibility:visible;display:inline;overflow:visible;enable-background:accumulate" />
    </g>
  </g>
</svg>
