<?xml version="1.0" encoding="UTF-8" standalone="no"?>
<!-- Created with Inkscape (http://www.inkscape.org/) -->

<svg
   xmlns:dc="http://purl.org/dc/elements/1.1/"
   xmlns:cc="http://creativecommons.org/ns#"
   xmlns:rdf="http://www.w3.org/1999/02/22-rdf-syntax-ns#"
   xmlns:svg="http://www.w3.org/2000/svg"
   xmlns="http://www.w3.org/2000/svg"
   xmlns:sodipodi="http://sodipodi.sourceforge.net/DTD/sodipodi-0.dtd"
   xmlns:inkscape="http://www.inkscape.org/namespaces/inkscape"
   width="744.09448819"
   height="1052.3622047"
   id="svg2"
   version="1.1"
   inkscape:version="0.48.3.1 r9886"
   sodipodi:docname="heading.svg"
   inkscape:export-filename="/usr/local/google/home/alancutter/repos/bugzilla_migrator/assets/heading.png"
   inkscape:export-xdpi="90"
   inkscape:export-ydpi="90">
  <defs
     id="defs4" />
  <sodipodi:namedview
     id="base"
     pagecolor="#ffffff"
     bordercolor="#666666"
     borderopacity="1.0"
     inkscape:pageopacity="0.0"
     inkscape:pageshadow="2"
     inkscape:zoom="1.8129418"
     inkscape:cx="372.04724"
     inkscape:cy="1181.4219"
     inkscape:document-units="px"
     inkscape:current-layer="layer1"
     showgrid="false"
     inkscape:snap-object-midpoints="false"
     inkscape:snap-bbox="true"
     inkscape:snap-smooth-nodes="false"
     inkscape:window-width="1855"
     inkscape:window-height="1176"
     inkscape:window-x="1985"
     inkscape:window-y="24"
     inkscape:window-maximized="1"
     inkscape:snap-nodes="false"
     inkscape:snap-global="false" />
  <metadata
     id="metadata7">
    <rdf:RDF>
      <cc:Work
         rdf:about="">
        <dc:format>image/svg+xml</dc:format>
        <dc:type
           rdf:resource="http://purl.org/dc/dcmitype/StillImage" />
        <dc:title></dc:title>
      </cc:Work>
    </rdf:RDF>
  </metadata>
  <g
     inkscape:label="Layer 1"
     inkscape:groupmode="layer"
     id="layer1">
    <g
       id="g3832"
       transform="matrix(0.35623758,0,0,0.35623758,-28.320322,-17.319528)"
       style="opacity:0.1">
      <path
         sodipodi:nodetypes="sssss"
         inkscape:connector-curvature="0"
         id="path2985"
         d="m 366.5,178.11218 c 0,21.67718 -26.75099,29.25 -59.75,29.25 -32.99901,0 -54.25,-8.57282 -59.75,-29.25 -5.57223,-20.94874 -1.74901,-39.25 31.25,-39.25 32.99901,0 88.25,17.57283 88.25,39.25 z"
         style="color:#000000;fill:#000000;fill-opacity:1;fill-rule:nonzero;stroke:none;stroke-width:1px;marker:none;visibility:visible;display:inline;overflow:visible;enable-background:accumulate" />
      <path
         inkscape:connector-curvature="0"
         id="path2988"
         d="M 267.19627,159.94762 C 251.10194,85.133035 197.65272,98.101491 197.65272,98.101491"
         style="fill:none;stroke:#000000;stroke-width:2.80711554999999979px;stroke-linecap:butt;stroke-linejoin:miter;stroke-opacity:1" />
      <path
         inkscape:connector-curvature="0"
         id="path2990"
         d="M 264.7954,156.41409 C 262.29532,97.337872 219.60424,80.427195 219.60424,80.427195"
         style="fill:none;stroke:#000000;stroke-width:2.80711554999999979px;stroke-linecap:butt;stroke-linejoin:miter;stroke-opacity:1" />
      <path
         inkscape:connector-curvature="0"
         id="path2992"
         d="m 253.84605,161.72848 c 22.62665,-78.540211 60.31383,-0.54423 60.31383,-0.54423 z"
         style="fill:#000000;stroke:none" />
      <path
         style="fill:#000000;stroke:none"
         d="m 275.33337,162.36708 c 20.27753,-78.829474 51.04861,-1.68198 51.04861,-1.68198 z"
         id="path2994"
         inkscape:connector-curvature="0" />
      <path
         sodipodi:nodetypes="cccc"
         inkscape:connector-curvature="0"
         id="path2996"
         d="m 289.6745,129.96767 6.6616,6.85567 -5.69048,-10.73345 z"
         style="fill:#ffffff;stroke:none" />
      <g
         transform="translate(-5.6568543,1.4142136)"
         id="g3008">
        <path
           sodipodi:type="arc"
           style="color:#000000;fill:#000000;fill-opacity:1;fill-rule:nonzero;stroke:none;stroke-width:1px;marker:none;visibility:visible;display:inline;overflow:visible;enable-background:accumulate"
           id="path2998"
           sodipodi:cx="301.05072"
           sodipodi:cy="284.44421"
           sodipodi:rx="40.128311"
           sodipodi:ry="51.265244"
           d="m 341.17903,284.44421 c 0,28.31302 -17.96606,51.26525 -40.12831,51.26525 -22.16225,0 -40.12831,-22.95223 -40.12831,-51.26525 0,-28.31301 17.96606,-51.26524 40.12831,-51.26524 22.16225,0 40.12831,22.95223 40.12831,51.26524 z"
           transform="matrix(0.77973569,0,0,0.81724139,41.915544,30.594649)" />
        <path
           transform="matrix(0.93392071,0,0,0.81724139,-14.224685,32.71597)"
           d="m 341.17903,284.44421 c 0,28.31302 -17.96606,51.26525 -40.12831,51.26525 -22.16225,0 -40.12831,-22.95223 -40.12831,-51.26525 0,-28.31301 17.96606,-51.26524 40.12831,-51.26524 22.16225,0 40.12831,22.95223 40.12831,51.26524 z"
           sodipodi:ry="51.265244"
           sodipodi:rx="40.128311"
           sodipodi:cy="284.44421"
           sodipodi:cx="301.05072"
           id="path3000"
           style="color:#000000;fill:#000000;fill-opacity:1;fill-rule:nonzero;stroke:none;stroke-width:1px;marker:none;visibility:visible;display:inline;overflow:visible;enable-background:accumulate"
           sodipodi:type="arc" />
      </g>
      <path
         sodipodi:nodetypes="ccccccccc"
         inkscape:connector-curvature="0"
         id="path3002"
         d="m 357.08892,268.53432 -226.98127,-108.18734 4.65528,-6.27451 9.55709,4.62728 -7.64013,-7.211 1.55949,-2.10193 22.62741,16.97057 198.69701,97.22718 z"
         style="fill:#000000;stroke:none"
         inkscape:transform-center-x="10.606602"
         inkscape:transform-center-y="-6.363961" />
      <path
         sodipodi:nodetypes="ccccsscc"
         inkscape:connector-curvature="0"
         id="path3004"
         d="m 160.51324,154.69012 3.88909,3.53554 6.0104,0.35355 -9.54594,9.54594 c 0,0 29.59203,43.49748 21.92031,62.93251 -7.67172,19.43502 -56.3496,20.78858 -55.86144,-4.5962 0.48818,-25.38477 30.75915,-58.68986 30.75915,-58.68986 z"
         style="fill:#000000;stroke:none" />
      <path
         sodipodi:nodetypes="cccsc"
         inkscape:connector-curvature="0"
         id="path3006"
         d="m 248.54803,182.97439 c 15.90991,25.1023 16.61701,43.48707 16.61701,43.48707 l 18.73833,3.18198 c 0,0 2.38649,-21.12481 12.99309,-22.89258 10.6066,-1.76777 -44.45934,-28.01911 -48.34843,-23.77647 z"
         style="fill:#000000;stroke:none" />
      <path
         sodipodi:nodetypes="cscsssscc"
         inkscape:connector-curvature="0"
         id="path3012"
         d="m 291.32799,257.92771 c 0,0 15.2028,10.60661 20.85965,11.66727 5.65686,1.06066 11.31371,-12.37437 11.31371,-12.37437 0,0 -4.24264,-6.5962 -2.12132,-11.19239 2.12132,-4.5962 15.9099,-2.82843 11.66726,5.3033 -1.02529,1.96514 -3.31772,6.36389 -4.68611,8.86193 -4.294,7.8388 -9.9333,16.65527 -14.75932,16.11904 -6.36396,-0.70711 -22.98097,-11.66726 -22.98097,-11.66726 z"
         style="fill:#000000;stroke:none" />
      <path
         sodipodi:nodetypes="cccc"
         inkscape:connector-curvature="0"
         id="path3014"
         d="m 297.31435,207.22941 -13.40462,-0.8044 14.81184,3.771 z"
         style="fill:#ffffff;stroke:none" />
      <path
         sodipodi:nodetypes="csccscc"
         inkscape:connector-curvature="0"
         id="path3016"
         d="m 276.47875,300.70767 c 0,0 20.68525,27.11849 23.67676,34.70519 2.99151,7.5867 -4.93843,45.90498 -4.93843,45.90498 l -6.71751,1.41422 c 0,0 9.19723,-37.51 7.43594,-44.95823 C 294.81424,333.03217 271.529,303.5361 271.529,303.5361 z"
         style="fill:#000000;stroke:none" />
      <path
         style="fill:#000000;stroke:none"
         d="m 257.14048,303.04415 c 0,0 -10.02878,32.59932 -14.46033,39.44538 -4.43154,6.84607 -40.21412,22.68214 -40.21412,22.68214 l -5.05746,-4.64188 c 0,0 35.86216,-14.33508 40.89658,-20.09986 3.20499,-3.66997 13.65563,-39.76713 13.65563,-39.76713 z"
         id="path3018"
         inkscape:connector-curvature="0"
         sodipodi:nodetypes="csccscc" />
      <path
         sodipodi:nodetypes="sssss"
         inkscape:connector-curvature="0"
         id="path3020"
         d="m 287.16589,376.0124 c 3.76343,-3.55529 16.3193,0.60682 17.962,3.67966 1.6427,3.07285 0.32006,5.2994 -2.04436,6.36061 -2.36444,1.06121 -17.76932,0.13669 -18.05563,-2.54904 -0.26443,-2.48048 0.38172,-5.83209 2.13799,-7.49123 z"
         style="fill:#000000;stroke:none" />
      <path
         style="fill:#000000;stroke:none"
         d="m 201.16953,356.87784 c 5.10963,0.8338 9.42082,13.33927 7.97529,16.50964 -1.44554,3.17038 -4.01788,3.47025 -6.29617,2.23493 -2.27831,-1.23535 -10.8917,-14.0406 -8.93075,-15.89796 1.81108,-1.71542 4.86714,-3.23571 7.25163,-2.84661 z"
         id="path3022"
         inkscape:connector-curvature="0"
         sodipodi:nodetypes="sssss" />
    </g>
    <g
       id="g3852"
       transform="matrix(0.34631252,0,0,0.34631252,467.02457,-15.396925)"
       style="opacity:0.1">
      <path
         transform="matrix(2.1587406,-0.5784328,0.5784328,2.1587406,-593.3488,-145.12343)"
         d="m 720,237.36218 c 0,87.26099 -70.73901,158 -158,158 -87.26099,0 -158,-70.73901 -158,-158 0,-87.26099 70.73901,-157.999997 158,-157.999997 87.26099,0 158,70.739007 158,157.999997 z"
         sodipodi:ry="158"
         sodipodi:rx="158"
         sodipodi:cy="237.36218"
         sodipodi:cx="562"
         id="path3024"
         style="color:#000000;fill:#000000;fill-opacity:1;fill-rule:nonzero;stroke:none;stroke-width:1px;marker:none;visibility:visible;display:inline;overflow:visible;enable-background:accumulate"
         sodipodi:type="arc" />
      <path
         sodipodi:type="arc"
         style="color:#000000;fill:none;stroke:#ffffff;stroke-width:26.96063805000000002;stroke-miterlimit:4;stroke-dasharray:none;marker:none;visibility:visible;display:inline;overflow:visible;enable-background:accumulate"
         id="path3026"
         sodipodi:cx="562"
         sodipodi:cy="237.36218"
         sodipodi:rx="158"
         sodipodi:ry="158"
         d="m 720,237.36218 c 0,87.26099 -70.73901,158 -158,158 -87.26099,0 -158,-70.73901 -158,-158 0,-87.26099 70.73901,-157.999997 158,-157.999997 87.26099,0 158,70.739007 158,157.999997 z"
         transform="matrix(0.82762849,-0.22176239,0.22176239,0.82762849,239.39627,-29.616528)" />
      <path
         inkscape:transform-center-y="-135.41161"
         inkscape:transform-center-x="-185.41926"
         inkscape:connector-curvature="0"
         id="path3796"
         d="M 757.16149,-93.210897 1120,-93.21089"
         style="color:#000000;fill:none;stroke:#ffffff;stroke-width:23.10052299000000176;stroke-linecap:butt;stroke-linejoin:miter;stroke-miterlimit:4;stroke-opacity:1;stroke-dasharray:none;stroke-dashoffset:0;marker:none;visibility:visible;display:inline;overflow:visible;enable-background:accumulate" />
      <path
         style="color:#000000;fill:none;stroke:#ffffff;stroke-width:23.10052299000000176;stroke-linecap:butt;stroke-linejoin:miter;stroke-miterlimit:4;stroke-opacity:1;stroke-dasharray:none;stroke-dashoffset:0;marker:none;visibility:visible;display:inline;overflow:visible;enable-background:accumulate"
         d="M 657.33258,133.62276 400.76702,-122.94282"
         id="path3815"
         inkscape:connector-curvature="0"
         inkscape:transform-center-x="226.86169"
         inkscape:transform-center-y="-35.360746" />
      <path
         style="color:#000000;fill:none;stroke:#ffffff;stroke-width:23.10052299000000176;stroke-linecap:butt;stroke-linejoin:miter;stroke-miterlimit:4;stroke-opacity:1;stroke-dasharray:none;stroke-dashoffset:0;marker:none;visibility:visible;display:inline;overflow:visible;enable-background:accumulate"
         d="M 872.18138,113.37063 690.76212,427.59799"
         id="path3819"
         inkscape:connector-curvature="0"
         inkscape:transform-center-x="-24.560265"
         inkscape:transform-center-y="228.28359" />
    </g>
    <rect
       style="color:#000000;fill:#000000;stroke:none;stroke-width:1;marker:none;visibility:visible;display:inline;overflow:visible;enable-background:accumulate;opacity:0.1"
       id="rect3859"
       width="849"
       height="4"
       x="-47"
       y="120.36218" />
    <text
       xml:space="preserve"
       style="font-size:34.93112946px;font-style:normal;font-variant:normal;font-weight:normal;font-stretch:normal;text-indent:0;text-align:center;text-decoration:none;line-height:125%;letter-spacing:0px;word-spacing:0px;text-transform:none;direction:ltr;block-progression:tb;writing-mode:lr-tb;text-anchor:middle;baseline-shift:baseline;color:#000000;fill:#000000;fill-opacity:1;fill-rule:nonzero;stroke:none;stroke-width:8;marker:none;visibility:visible;display:inline;overflow:visible;enable-background:accumulate;font-family:Dingbats;-inkscape-font-specification:Dingbats"
       x="370.35016"
       y="54.809258"
       id="text3861"
       sodipodi:linespacing="125%"><tspan
         sodipodi:role="line"
         x="370.35016"
         y="54.809258"
         id="tspan3865">Bugzilla</tspan><tspan
         sodipodi:role="line"
         x="370.35016"
         y="98.473167"
         id="tspan3869">Migrator</tspan></text>
    <rect
       style="color:#000000;fill:#ffffff;fill-opacity:0.00392157;stroke:none;stroke-width:2.80711532;marker:none;visibility:visible;display:inline;overflow:visible;enable-background:accumulate"
       id="rect3011"
       width="110.39681"
       height="110.39681"
       x="181.63496"
       y="-167.95125"
       inkscape:export-filename="/usr/local/google/home/alancutter/repos/bugzilla_migrator/img/icon48.png"
       inkscape:export-xdpi="39.13155"
       inkscape:export-ydpi="39.13155" />
    <g
       style="fill:#404d6c;fill-opacity:1"
       transform="matrix(0.35623758,0,0,0.35623758,148.94564,-195.66821)"
       id="g3792"
       inkscape:export-filename="/usr/local/google/home/alancutter/repos/bugzilla_migrator/img/icon48.png"
       inkscape:export-xdpi="39.13155"
       inkscape:export-ydpi="39.13155">
      <path
         style="color:#000000;fill:#404d6c;fill-opacity:1;fill-rule:nonzero;stroke:none;stroke-width:1px;marker:none;visibility:visible;display:inline;overflow:visible;enable-background:accumulate"
         d="m 366.5,178.11218 c 0,21.67718 -26.75099,29.25 -59.75,29.25 -32.99901,0 -54.25,-8.57282 -59.75,-29.25 -5.57223,-20.94874 -1.74901,-39.25 31.25,-39.25 32.99901,0 88.25,17.57283 88.25,39.25 z"
         id="path3794"
         inkscape:connector-curvature="0"
         sodipodi:nodetypes="sssss" />
      <path
         style="fill:none;stroke:#404d6c;stroke-width:2.80711555px;stroke-linecap:butt;stroke-linejoin:miter;stroke-opacity:1"
         d="M 267.19627,159.94762 C 251.10194,85.133035 197.65272,98.101491 197.65272,98.101491"
         id="path3797"
         inkscape:connector-curvature="0" />
      <path
         style="fill:none;stroke:#404d6c;stroke-width:2.80711555px;stroke-linecap:butt;stroke-linejoin:miter;stroke-opacity:1"
         d="M 264.7954,156.41409 C 262.29532,97.337872 219.60424,80.427195 219.60424,80.427195"
         id="path3799"
         inkscape:connector-curvature="0" />
      <path
         style="fill:#404d6c;fill-opacity:1;stroke:none"
         d="m 253.84605,161.72848 c 22.62665,-78.540211 60.31383,-0.54423 60.31383,-0.54423 z"
         id="path3801"
         inkscape:connector-curvature="0" />
      <path
         inkscape:connector-curvature="0"
         id="path3803"
         d="m 275.33337,162.36708 c 20.27753,-78.829474 51.04861,-1.68198 51.04861,-1.68198 z"
         style="fill:#404d6c;fill-opacity:1;stroke:none" />
      <path
         style="fill:#ffffff;fill-opacity:1;stroke:none"
         d="m 289.6745,129.96767 6.6616,6.85567 -5.69048,-10.73345 z"
         id="path3805"
         inkscape:connector-curvature="0"
         sodipodi:nodetypes="cccc" />
      <g
         id="g3807"
         transform="translate(-5.6568543,1.4142136)"
         style="fill:#404d6c;fill-opacity:1">
        <path
           transform="matrix(0.77973569,0,0,0.81724139,41.915544,30.594649)"
           d="m 341.17903,284.44421 c 0,28.31302 -17.96606,51.26525 -40.12831,51.26525 -22.16225,0 -40.12831,-22.95223 -40.12831,-51.26525 0,-28.31301 17.96606,-51.26524 40.12831,-51.26524 22.16225,0 40.12831,22.95223 40.12831,51.26524 z"
           sodipodi:ry="51.265244"
           sodipodi:rx="40.128311"
           sodipodi:cy="284.44421"
           sodipodi:cx="301.05072"
           id="path3809"
           style="color:#000000;fill:#404d6c;fill-opacity:1;fill-rule:nonzero;stroke:none;stroke-width:1px;marker:none;visibility:visible;display:inline;overflow:visible;enable-background:accumulate"
           sodipodi:type="arc" />
        <path
           sodipodi:type="arc"
           style="color:#000000;fill:#404d6c;fill-opacity:1;fill-rule:nonzero;stroke:none;stroke-width:1px;marker:none;visibility:visible;display:inline;overflow:visible;enable-background:accumulate"
           id="path3811"
           sodipodi:cx="301.05072"
           sodipodi:cy="284.44421"
           sodipodi:rx="40.128311"
           sodipodi:ry="51.265244"
           d="m 341.17903,284.44421 c 0,28.31302 -17.96606,51.26525 -40.12831,51.26525 -22.16225,0 -40.12831,-22.95223 -40.12831,-51.26525 0,-28.31301 17.96606,-51.26524 40.12831,-51.26524 22.16225,0 40.12831,22.95223 40.12831,51.26524 z"
           transform="matrix(0.93392071,0,0,0.81724139,-14.224685,32.71597)" />
      </g>
      <path
         inkscape:transform-center-y="-6.363961"
         inkscape:transform-center-x="10.606602"
         style="fill:#404d6c;fill-opacity:1;stroke:none"
         d="m 357.08892,268.53432 -226.98127,-108.18734 4.65528,-6.27451 9.55709,4.62728 -7.64013,-7.211 1.55949,-2.10193 22.62741,16.97057 198.69701,97.22718 z"
         id="path3813"
         inkscape:connector-curvature="0"
         sodipodi:nodetypes="ccccccccc" />
      <path
         style="fill:#404d6c;fill-opacity:1;stroke:none"
         d="m 160.51324,154.69012 3.88909,3.53554 6.0104,0.35355 -9.54594,9.54594 c 0,0 29.59203,43.49748 21.92031,62.93251 -7.67172,19.43502 -56.3496,20.78858 -55.86144,-4.5962 0.48818,-25.38477 30.75915,-58.68986 30.75915,-58.68986 z"
         id="path3816"
         inkscape:connector-curvature="0"
         sodipodi:nodetypes="ccccsscc" />
      <path
         style="fill:#404d6c;fill-opacity:1;stroke:none"
         d="m 248.54803,182.97439 c 15.90991,25.1023 16.61701,43.48707 16.61701,43.48707 l 18.73833,3.18198 c 0,0 2.38649,-21.12481 12.99309,-22.89258 10.6066,-1.76777 -44.45934,-28.01911 -48.34843,-23.77647 z"
         id="path3818"
         inkscape:connector-curvature="0"
         sodipodi:nodetypes="cccsc" />
      <path
         style="fill:#404d6c;fill-opacity:1;stroke:none"
         d="m 291.32799,257.92771 c 0,0 15.2028,10.60661 20.85965,11.66727 5.65686,1.06066 11.31371,-12.37437 11.31371,-12.37437 0,0 -4.24264,-6.5962 -2.12132,-11.19239 2.12132,-4.5962 15.9099,-2.82843 11.66726,5.3033 -1.02529,1.96514 -3.31772,6.36389 -4.68611,8.86193 -4.294,7.8388 -9.9333,16.65527 -14.75932,16.11904 -6.36396,-0.70711 -22.98097,-11.66726 -22.98097,-11.66726 z"
         id="path3820"
         inkscape:connector-curvature="0"
         sodipodi:nodetypes="cscsssscc" />
      <path
         style="fill:#ffffff;fill-opacity:1;stroke:none"
         d="m 297.31435,207.22941 -13.40462,-0.8044 14.81184,3.771 z"
         id="path3822"
         inkscape:connector-curvature="0"
         sodipodi:nodetypes="cccc" />
      <path
         style="fill:#404d6c;fill-opacity:1;stroke:none"
         d="m 276.47875,300.70767 c 0,0 20.68525,27.11849 23.67676,34.70519 2.99151,7.5867 -4.93843,45.90498 -4.93843,45.90498 l -6.71751,1.41422 c 0,0 9.19723,-37.51 7.43594,-44.95823 C 294.81424,333.03217 271.529,303.5361 271.529,303.5361 z"
         id="path3824"
         inkscape:connector-curvature="0"
         sodipodi:nodetypes="csccscc" />
      <path
         sodipodi:nodetypes="csccscc"
         inkscape:connector-curvature="0"
         id="path3826"
         d="m 257.14048,303.04415 c 0,0 -10.02878,32.59932 -14.46033,39.44538 -4.43154,6.84607 -40.21412,22.68214 -40.21412,22.68214 l -5.05746,-4.64188 c 0,0 35.86216,-14.33508 40.89658,-20.09986 3.20499,-3.66997 13.65563,-39.76713 13.65563,-39.76713 z"
         style="fill:#404d6c;fill-opacity:1;stroke:none" />
      <path
         style="fill:#404d6c;fill-opacity:1;stroke:none"
         d="m 287.16589,376.0124 c 3.76343,-3.55529 16.3193,0.60682 17.962,3.67966 1.6427,3.07285 0.32006,5.2994 -2.04436,6.36061 -2.36444,1.06121 -17.76932,0.13669 -18.05563,-2.54904 -0.26443,-2.48048 0.38172,-5.83209 2.13799,-7.49123 z"
         id="path3828"
         inkscape:connector-curvature="0"
         sodipodi:nodetypes="sssss" />
      <path
         sodipodi:nodetypes="sssss"
         inkscape:connector-curvature="0"
         id="path3830"
         d="m 201.16953,356.87784 c 5.10963,0.8338 9.42082,13.33927 7.97529,16.50964 -1.44554,3.17038 -4.01788,3.47025 -6.29617,2.23493 -2.27831,-1.23535 -10.8917,-14.0406 -8.93075,-15.89796 1.81108,-1.71542 4.86714,-3.23571 7.25163,-2.84661 z"
         style="fill:#404d6c;fill-opacity:1;stroke:none" />
    </g>
    <rect
       style="color:#000000;fill:#404d6c;stroke:none;stroke-width:1;stroke-linecap:butt;stroke-linejoin:miter;stroke-miterlimit:4;stroke-opacity:1;stroke-dasharray:none;stroke-dashoffset:0;marker:none;visibility:visible;display:inline;overflow:visible;enable-background:accumulate;fill-opacity:1"
       id="rect3850"
       width="271.93372"
       height="75.567787"
       x="74.464607"
       y="-322.19931" />
  </g>
</svg>
